<svg width="1926" height="737" viewBox="0 0 1926 737" fill="none" xmlns="http://www.w3.org/2000/svg">
    <path fill-rule="evenodd" clip-rule="evenodd" d="M552.5 352.5V349.5C554.333 348.5 558 345.1 558 339.5V204.5C558 198.9 553.167 193.833 551 192.5L606.5 190C623.5 189 657.6 195.1 658 227.5C658.4 259.9 632.167 266 619 265C633.667 290.667 663.5 342.7 665.5 345.5C667.5 348.3 671 351.333 672.5 352.5H643.5C644 350.833 644.4 346.3 642 341.5C639.6 336.7 612.333 289.167 599 266H575V339.5C575 344.3 578.333 348.167 580 349.5V352.5H552.5ZM575 195V263C576.52 263 578.122 263.013 579.789 263.026C603.884 263.214 641.5 263.509 641.5 227.5C641.5 204 619.5 194.5 606 194.5L575 195Z" fill="black"/>
    <path d="M558 339.5C558 345.1 554.333 348.5 552.5 349.5V352.5H580V349.5C578.333 348.167 575 344.3 575 339.5M558 339.5C558 332.5 558 211.5 558 204.5M558 339.5V204.5M558 204.5C558 198.9 553.167 193.833 551 192.5L606.5 190C623.5 189 657.6 195.1 658 227.5C658.4 259.9 632.167 266 619 265C633.667 290.667 663.5 342.7 665.5 345.5C667.5 348.3 671 351.333 672.5 352.5H643.5C644 350.833 644.4 346.3 642 341.5C639.6 336.7 612.333 289.167 599 266H575M575 266C575 288.5 575 334.7 575 339.5M575 266V339.5M575 263V195L606 194.5C619.5 194.5 641.5 204 641.5 227.5C641.5 263.509 603.884 263.214 579.789 263.026C578.122 263.013 576.52 263 575 263Z" stroke="black"/>
    <path fill-rule="evenodd" clip-rule="evenodd" d="M425.5 328.5C420.3 340.1 413.333 347.333 410.5 349.5V353H430.5V349.5C428.833 349.5 425.5 348.2 425.5 343C425.5 337.8 434.167 311.5 438.5 299C439.5 293 445.3 281.1 460.5 281.5C479.5 282 498 300 506.5 319.5C513.3 335.1 513 348.333 512 353H539.5V349.5C538.5 349.167 536.1 347.7 534.5 344.5C532.9 341.3 498.5 242.5 481.5 193.5H462.5L467 205.5L425.5 328.5ZM469 211.5L445 281.5C446.833 280.833 453.1 279.5 463.5 279.5C480.3 279.1 494.167 293.5 500.5 301.5L469 211.5Z" fill="black" stroke="black"/>
    <path d="M304.5 341C304.5 346.2 300.833 350.833 299 352.5H397.5V331.5C386.833 337.5 361.7 349.5 346.5 349.5H321V203C321 199 325 195 327 193.5H298.5C300.333 195.333 304.1 199.8 304.5 203C305 207 304.5 334.5 304.5 341Z" fill="black" stroke="black"/>
    <path d="M1367.5 341C1367.5 346.2 1363.83 350.833 1362 352.5H1460.5V331.5C1449.83 337.5 1424.7 349.5 1409.5 349.5H1384V203C1384 199 1388 195 1390 193.5H1361.5C1363.33 195.333 1367.1 199.8 1367.5 203C1368 207 1367.5 334.5 1367.5 341Z" fill="black" stroke="black"/>
    <path d="M1473 193C1474.67 196 1478 203.3 1478 208.5V303C1478 311.5 1484.5 353.5 1537 355C1579 356.2 1594.5 321 1594.5 303V215.5C1594.5 205.9 1601 196.5 1603.5 193H1582C1585 197.5 1591 208.3 1591 215.5V303C1591 323.5 1575.5 350.5 1537 350C1506.2 349.6 1496.17 318.5 1495 303V208.5C1495 200.5 1500 194.833 1502.5 193H1473Z" fill="black" stroke="black"/>
    <path d="M1632.5 202C1629.3 197.6 1626.67 197.667 1624.5 196.5V193.5L1659 193C1658.33 195.833 1657.4 202.7 1659 207.5C1660.6 212.3 1682 243.167 1692.5 258C1705.33 240.5 1731.6 204.7 1734 201.5C1736.4 198.3 1733.67 196.833 1732 196.5V193.5H1753.5V196.5C1749.5 197.833 1740.3 201.9 1735.5 207.5C1730.7 213.1 1706.5 247.167 1695 263.5C1711.67 287.167 1745.9 335.8 1749.5 341C1753.1 346.2 1758 348.833 1760 349.5V352H1725C1725.5 347.5 1725.4 336.9 1721 330.5C1716.6 324.1 1694.17 292.5 1683.5 277.5C1668.5 297.833 1637.7 339.6 1634.5 344C1631.3 348.4 1634.5 349.5 1636.5 349.5V353H1615V351C1619 349.333 1628.9 343.7 1636.5 334.5C1644.1 325.3 1670 290 1682 273.5C1666.83 251.5 1635.7 206.4 1632.5 202Z" fill="black" stroke="black"/>
    <path d="M1845 195.5C1873.4 195.1 1898.17 226.333 1907 242L1913.5 221.5C1909.17 211.5 1890.1 191.6 1848.5 192C1796.5 192.5 1773 240.5 1771.5 272.5C1770 304.5 1793.5 350.5 1853 353.5C1900.6 355.9 1920.5 317.833 1924.5 298.5H1921C1911.8 337.3 1875.5 346.667 1858.5 346.5C1804.1 345.3 1788.83 291.333 1788 264.5C1799.33 264.667 1824.9 265.4 1836.5 267C1848.1 268.6 1864 272.333 1870.5 274V252.5C1866.17 253.833 1853.3 256.9 1836.5 258.5C1819.7 260.1 1797.17 260.167 1788 260C1788 231 1809.5 196 1845 195.5Z" fill="black" stroke="black"/>
    <path d="M1206.74 697.305C1206.74 714.802 1194.37 730.392 1188.19 736H1520.5V665.34C1484.51 685.528 1399.72 725.906 1348.44 725.906H1262.41V232.965C1262.41 219.506 1275.9 206.047 1282.65 201H1186.5C1192.69 207.169 1205.39 222.198 1206.74 232.965C1208.43 246.425 1206.74 675.434 1206.74 697.305Z" fill="black" stroke="black"/>
    <path d="M1 319L6.5 297.5C17.5 315.5 44.9 351.4 66.5 351C93.5 350.5 102 332.5 102 322C102 311.5 98 297.5 56 279.5C14 261.5 15 247 14 231.5C13 216 23 191.5 60.5 190.5C90.5 189.7 107.333 210.167 112 220.5L104 240.5C87.5 196 67.5 194.5 59 194.5C50.5 194.5 24 196.5 23 222.5C22.2 243.3 50.3333 258.833 64.5 264C87 273.5 113.163 285.014 112 311.5C110.884 336.918 95.7 355 64.5 355C33.3 355 9.16667 331 1 319Z" fill="black" stroke="black"/>
    <path d="M853.5 430.652L872.124 358.777C909.373 418.951 1002.16 538.965 1075.3 537.628C1166.73 535.956 1195.51 475.782 1195.51 440.681C1195.51 405.579 1181.97 358.777 1039.74 298.603C897.521 238.429 900.907 189.956 897.521 138.139C894.135 86.3227 927.997 4.41917 1054.98 1.07617C1156.57 -1.59823 1213.57 66.8219 1229.37 101.366L1202.28 168.226C1146.41 19.4627 1078.69 14.4482 1049.9 14.4482C1021.12 14.4482 931.384 21.1342 927.997 108.052C925.288 177.587 1020.55 229.515 1068.53 246.787C1144.72 278.545 1233.31 317.038 1229.37 405.579C1225.59 490.552 1174.18 551 1068.53 551C962.876 551 881.154 470.768 853.5 430.652Z" fill="black" stroke="black"/>
    <path fill-rule="evenodd" clip-rule="evenodd" d="M200.5 191.5C157.184 193.797 124.5 226.5 124.5 272.5C124.5 344.5 194 354.625 207.5 353.5C221 352.375 282.5 345.5 285 271C286.493 226.5 245.745 189.101 200.5 191.5ZM141 269.5C139 229.5 163.028 194.741 200.5 195.5C237.971 196.259 265.992 239 268.5 276C270.5 305.5 252 349.5 210.5 349.5C170.949 349.5 143 309.5 141 269.5Z" fill="black" stroke="black"/>
    <path fill-rule="evenodd" clip-rule="evenodd" d="M761.5 194.109C718.185 196.406 685.5 229.109 685.5 275.109C685.5 347.109 755 357.234 768.5 356.109C782 354.984 843.5 348.109 846 273.609C847.493 229.109 806.745 191.711 761.5 194.109ZM702 272.109C700 232.109 724.029 197.351 761.5 198.109C798.971 198.868 826.992 241.609 829.5 278.609C831.5 308.109 813 352.109 771.5 352.109C731.949 352.109 704 312.109 702 272.109Z" fill="black" stroke="black"/>
</svg>
